# xmcd
#
# Track frame offsets:
#  150
#  16493
#  31501
#  43427
#  51520
#  65613
#  87128
#  96954
#  107852
#  134860
#  149336
#  160842
#
# Disc length: 2323 seconds
#
# Revision: 0
# Processed by: cddbd v1.5.1PL2 Copyright (c) Steve Scherf et al.
# Submitted via: Collectorz.com Music Collector 6.9
#
DISCID=af09110c
DTITLE=John Mayall - Blues Breakers With Eric Clapton
DYEAR=1966
DGENRE=Blues-Rock - British Blues
TTITLE0=All your love
TTITLE1=Hide away
TTITLE2=Little girl
TTITLE3=Another man
TTITLE4=Double crossing time
TTITLE5=What'd I say
TTITLE6=Key to love
TTITLE7=Parchman Farm
TTITLE8=Have you heard
TTITLE9=Ramblin' on my mind
TTITLE10=Steppin' out
TTITLE11=It ain't right
EXTD=
EXTT0=
EXTT1=
EXTT2=
EXTT3=
EXTT4=
EXTT5=
EXTT6=
EXTT7=
EXTT8=
EXTT9=
EXTT10=
EXTT11=
PLAYORDER=
